<svg viewBox="0 0 371 413" fill="none" xmlns="http://www.w3.org/2000/svg">
<rect x="151.398" y="181.099" width="69" height="69" stroke="#b3c2b8" stroke-width="4"/>
<rect x="171.398" y="201.099" width="29" height="29" stroke="#b3c2b8" stroke-width="4"/>
<line x1="173.398" y1="232.099" x2="173.398" y2="238.099" stroke="#b3c2b8" stroke-width="4"/>
<line x1="169.398" y1="228.099" x2="163.398" y2="228.099" stroke="#b3c2b8" stroke-width="4"/>
<line x1="169.398" y1="222.099" x2="163.398" y2="222.099" stroke="#b3c2b8" stroke-width="4"/>
<line x1="169.398" y1="216.099" x2="163.398" y2="216.099" stroke="#b3c2b8" stroke-width="4"/>
<line x1="169.398" y1="210.099" x2="163.398" y2="210.099" stroke="#b3c2b8" stroke-width="4"/>
<line x1="169.398" y1="203.099" x2="163.398" y2="203.099" stroke="#b3c2b8" stroke-width="4"/>
<line x1="173.398" y1="199.099" x2="173.398" y2="193.099" stroke="#b3c2b8" stroke-width="4"/>
<line x1="161.398" y1="179.099" x2="161.398" y2="170.099" stroke="#b3c2b8" stroke-width="6"/>
<line x1="222.398" y1="191.099" x2="231.398" y2="191.099" stroke="#b3c2b8" stroke-width="6"/>
<line x1="209.398" y1="252.099" x2="209.398" y2="261.099" stroke="#b3c2b8" stroke-width="6"/>
<line x1="149.398" y1="239.099" x2="140.398" y2="239.099" stroke="#b3c2b8" stroke-width="6"/>
<line x1="169.398" y1="179.099" x2="169.398" y2="170.099" stroke="#b3c2b8" stroke-width="6"/>
<line x1="222.398" y1="199.099" x2="231.398" y2="199.099" stroke="#b3c2b8" stroke-width="6"/>
<line x1="201.398" y1="252.099" x2="201.398" y2="261.099" stroke="#b3c2b8" stroke-width="6"/>
<line x1="149.398" y1="231.099" x2="140.398" y2="231.099" stroke="#b3c2b8" stroke-width="6"/>
<line x1="177.398" y1="179.099" x2="177.398" y2="170.099" stroke="#b3c2b8" stroke-width="6"/>
<line x1="222.398" y1="207.099" x2="231.398" y2="207.099" stroke="#b3c2b8" stroke-width="6"/>
<line x1="193.398" y1="252.099" x2="193.398" y2="261.099" stroke="#b3c2b8" stroke-width="6"/>
<line x1="149.398" y1="223.099" x2="140.398" y2="223.099" stroke="#b3c2b8" stroke-width="6"/>
<line x1="185.398" y1="179.099" x2="185.398" y2="170.099" stroke="#b3c2b8" stroke-width="6"/>
<line x1="222.398" y1="215.099" x2="231.398" y2="215.099" stroke="#b3c2b8" stroke-width="6"/>
<line x1="185.398" y1="252.099" x2="185.398" y2="261.099" stroke="#b3c2b8" stroke-width="6"/>
<line x1="149.398" y1="215.099" x2="140.398" y2="215.099" stroke="#b3c2b8" stroke-width="6"/>
<line x1="193.398" y1="179.099" x2="193.398" y2="170.099" stroke="#b3c2b8" stroke-width="6"/>
<line x1="222.398" y1="223.099" x2="231.398" y2="223.099" stroke="#b3c2b8" stroke-width="6"/>
<line x1="177.398" y1="252.099" x2="177.398" y2="261.099" stroke="#b3c2b8" stroke-width="6"/>
<line x1="149.398" y1="207.099" x2="140.398" y2="207.099" stroke="#b3c2b8" stroke-width="6"/>
<line x1="201.398" y1="179.099" x2="201.398" y2="170.099" stroke="#b3c2b8" stroke-width="6"/>
<line x1="222.398" y1="231.099" x2="231.398" y2="231.099" stroke="#b3c2b8" stroke-width="6"/>
<line x1="169.398" y1="252.099" x2="169.398" y2="261.099" stroke="#b3c2b8" stroke-width="6"/>
<line x1="149.398" y1="199.099" x2="140.398" y2="199.099" stroke="#b3c2b8" stroke-width="6"/>
<line x1="209.398" y1="179.099" x2="209.398" y2="170.099" stroke="#b3c2b8" stroke-width="6"/>
<line x1="222.398" y1="239.099" x2="231.398" y2="239.099" stroke="#b3c2b8" stroke-width="6"/>
<line x1="161.398" y1="252.099" x2="161.398" y2="261.099" stroke="#b3c2b8" stroke-width="6"/>
<line x1="149.398" y1="191.099" x2="140.398" y2="191.099" stroke="#b3c2b8" stroke-width="6"/>
<line x1="180.398" y1="199.099" x2="180.398" y2="193.099" stroke="#b3c2b8" stroke-width="4"/>
<line x1="186.398" y1="199.099" x2="186.398" y2="193.099" stroke="#b3c2b8" stroke-width="4"/>
<line x1="192.398" y1="199.099" x2="192.398" y2="193.099" stroke="#b3c2b8" stroke-width="4"/>
<line x1="198.398" y1="199.099" x2="198.398" y2="193.099" stroke="#b3c2b8" stroke-width="4"/>
<line x1="202.398" y1="203.099" x2="208.398" y2="203.099" stroke="#b3c2b8" stroke-width="4"/>
<line x1="202.398" y1="209.099" x2="208.398" y2="209.099" stroke="#b3c2b8" stroke-width="4"/>
<line x1="202.398" y1="215.099" x2="208.398" y2="215.099" stroke="#b3c2b8" stroke-width="4"/>
<line x1="202.398" y1="221.099" x2="208.398" y2="221.099" stroke="#b3c2b8" stroke-width="4"/>
<line x1="202.398" y1="228.099" x2="208.398" y2="228.099" stroke="#b3c2b8" stroke-width="4"/>
<line x1="179.398" y1="232.099" x2="179.398" y2="238.099" stroke="#b3c2b8" stroke-width="4"/>
<line x1="185.398" y1="232.099" x2="185.398" y2="238.099" stroke="#b3c2b8" stroke-width="4"/>
<line x1="191.398" y1="232.099" x2="191.398" y2="238.099" stroke="#b3c2b8" stroke-width="4"/>
<line x1="198.398" y1="232.099" x2="198.398" y2="238.099" stroke="#b3c2b8" stroke-width="4"/>
<line x1="231.398" y1="215.099" x2="270.398" y2="215.099" stroke="#b3c2b8" stroke-width="4"/>
<path d="M230.403 223.096L255.898 223.099L264.898 236.099L273.898 236.099" stroke="#b3c2b8" stroke-width="4"/>
<path d="M141.847 223.096L116.352 223.099L107.352 236.099L98.3984 236.099" stroke="#b3c2b8" stroke-width="4"/>
<path d="M229.565 207.101L255.06 207.098L264.061 194.099L272.398 194.099" stroke="#b3c2b8" stroke-width="4"/>
<path d="M142.685 207.101L117.19 207.098L108.189 194.099L99.3984 194.099" stroke="#b3c2b8" stroke-width="4"/>
<line x1="185.398" y1="170.099" x2="185.398" y2="75.0986" stroke="#b3c2b8" stroke-width="4"/>
<line x1="185.398" y1="260.82" x2="185.398" y2="365.82" stroke="#b3c2b8" stroke-width="4"/>
<path d="M164.898 82.5986L164.898 123.099L177.398 137.842L177.398 170.099" stroke="#b3c2b8" stroke-width="4"/>
<path d="M164.898 376.604L164.898 307.826L177.398 293.083L177.398 260.826" stroke="#b3c2b8" stroke-width="4"/>
<path d="M205.898 83.0986L205.898 123.599L193.398 138.342L193.398 170.599" stroke="#b3c2b8" stroke-width="4"/>
<path d="M205.898 378.543L205.898 307.326L193.398 292.583L193.398 260.326" stroke="#b3c2b8" stroke-width="4"/>
<path d="M155.901 81.0995L156.398 126.099L169.371 141.099L169.371 170.398" stroke="#b3c2b8" stroke-width="4"/>
<path d="M155.901 349.825L156.398 304.826L169.371 289.826L169.371 260.527" stroke="#b3c2b8" stroke-width="4"/>
<path d="M214.896 81.5995L214.398 126.599L201.425 141.599L201.425 170.898" stroke="#b3c2b8" stroke-width="4"/>
<path d="M214.896 349.325L214.398 304.326L201.425 289.326L201.425 260.027" stroke="#b3c2b8" stroke-width="4"/>
<path d="M146.398 77.5986L146.398 129.099L161.398 145.324L161.398 170.099" stroke="#b3c2b8" stroke-width="4"/>
<path d="M146.398 353.326L146.398 301.826L161.398 285.601L161.398 260.826" stroke="#b3c2b8" stroke-width="4"/>
<path d="M224.398 78.0986L224.398 129.599L209.398 145.824L209.398 170.599" stroke="#b3c2b8" stroke-width="4"/>
<path d="M224.398 352.826L224.398 301.326L209.398 285.101L209.398 260.326" stroke="#b3c2b8" stroke-width="4"/>
<path d="M231.398 215.099H272.398" stroke="#b3c2b8" stroke-width="4"/>
<path d="M140.852 215.099H97.8984" stroke="#b3c2b8" stroke-width="4"/>
<path d="M231.398 231.099H249.398L258.398 245.099H271.898" stroke="#b3c2b8" stroke-width="4"/>
<path d="M140.852 231.099H122.852L113.852 245.099H97.8984" stroke="#b3c2b8" stroke-width="4"/>
<path d="M230.561 199.099H248.561L257.561 185.099H272.398" stroke="#b3c2b8" stroke-width="4"/>
<path d="M141.689 199.099H123.689L114.689 185.099H99.8984" stroke="#b3c2b8" stroke-width="4"/>
<path d="M272.393 176.099L251.893 176.099L242.893 191.099L231.393 191.099" stroke="#b3c2b8" stroke-width="4"/>
<path d="M99.8965 176.099L120.35 176.099L129.35 191.099L140.85 191.099" stroke="#b3c2b8" stroke-width="4"/>
<path d="M273.893 254.099L251.893 254.099L242.893 239.099L231.393 239.099" stroke="#b3c2b8" stroke-width="4"/>
<path d="M98.8965 254.099L120.35 254.099L129.35 239.099L140.85 239.099" stroke="#b3c2b8" stroke-width="4"/>
<path d="M181.399 80.5992L327.926 45.0935L307.209 133.097L281.167 170.598L281.167 368.598L205.713 356.04" stroke="#b3c2b8" stroke-width="20"/>
<path d="M187.587 80.1045L43.56 45.0995L64.2772 133.103L90.3191 170.604L90.3191 368.604L165.086 356.104" stroke="#b3c2b8" stroke-width="20"/>
<path d="M185.713 49.04L96.6692 27.8487L5.89497 6.09831L36.7129 150.099L64.7129 189.599L54.9442 393.099L72.7129 396.04L80.9442 407.599L160.895 392.598L166.898 378.6L186.901 368.1" stroke="#b3c2b8" stroke-width="9"/>
<path d="M183.713 49.04L273.845 27.7901L364.619 6.03972L333.801 150.04L305.801 189.54L315.57 393.041L298.713 395.54L289.57 407.541L209.619 392.539L203.615 378.541L183.612 368.041" stroke="#b3c2b8" stroke-width="9"/>
<path d="M10.7131 116.04L66.7123 103.039" stroke="#b3c2b8" stroke-width="10"/>
<line x1="100.565" y1="54.8113" x2="112.565" y2="9.8113" stroke="#b3c2b8" stroke-width="10"/>
<line y1="-5" x2="46.5725" y2="-5" transform="matrix(-0.257663 -0.966235 -0.966235 0.257663 269.393 56.0996)" stroke="#b3c2b8" stroke-width="10"/>
<path d="M360.211 116.54L310.489 104.04" stroke="#b3c2b8" stroke-width="10"/>
</svg>
